<?xml version="1.0" encoding="utf-8"?>
<!-- Generator: Adobe Illustrator 24.3.0, SVG Export Plug-In . SVG Version: 6.00 Build 0)  -->
<svg version="1.1" id="Layer_1" xmlns="http://www.w3.org/2000/svg" xmlns:xlink="http://www.w3.org/1999/xlink" x="0px" y="0px"
	 viewBox="0 0 2035.6 2035.6" style="enable-background:new 0 0 2035.6 2035.6;" xml:space="preserve">
<style type="text/css">
	.st0{fill:#FFFFFF;}
</style>
<circle class="st0" cx="1014.3" cy="1017.8" r="1014.3"/>
<path d="M1374.7,1030.7c1.8,197.9,173.6,263.7,175.5,264.6c-1.5,4.6-27.4,93.8-90.5,186c-54.5,79.7-111.1,159-200.2,160.7
	c-87.6,1.6-115.7-51.9-215.8-51.9c-100.1,0-131.4,50.3-214.2,53.5c-86,3.3-151.5-86.1-206.5-165.5
	c-112.3-162.4-198.1-458.8-82.9-658.9c57.2-99.4,159.5-162.3,270.6-163.9c84.5-1.6,164.2,56.8,215.8,56.8
	c51.6,0,148.5-70.3,250.3-60c42.6,1.8,162.3,17.2,239.2,129.7C1509.8,785.7,1373.2,865.3,1374.7,1030.7 M1210.1,544.8
	c45.7-55.3,76.4-132.2,68-208.8c-65.8,2.6-145.4,43.9-192.6,99.1c-42.3,48.9-79.4,127.2-69.4,202.3
	C1089.5,643,1164.5,600.1,1210.1,544.8"/>
</svg>
