<svg version="1.1" xmlns="http://www.w3.org/2000/svg" xmlns:xlink="http://www.w3.org/1999/xlink" width="48px"
     height="48px" viewBox="0,0,255.99609,255.99609">
    <g fill="none" fill-rule="nonzero" stroke="#67758e" stroke-width="3" stroke-linecap="round" stroke-linejoin="round"
       stroke-miterlimit="10" stroke-dasharray="" stroke-dashoffset="0" font-family="none" font-weight="none"
       font-size="none" text-anchor="none" style="mix-blend-mode: normal">
        <g transform="scale(5.33333,5.33333)">
            <path d="M24,11.6v-6"></path>
            <path d="M41.6,28.6c1.1,-0.4 1.9,-1.5 1.9,-2.7v-3.8c0,-1.3 -0.8,-2.4 -2,-2.7"></path>
            <path d="M6.5,28.7c-1.2,-0.4 -2.1,-1.5 -2.1,-2.8v-3.8c0,-1.3 0.8,-2.3 1.9,-2.7"></path>
            <path d="M25.4,36.4h-7.4c-6.8,0 -12.4,-5.6 -12.4,-12.4v0c0,-5 2.9,-9.3 7.1,-11.2"></path>
            <path d="M18.9,11.6h11.1c6.8,0 12.4,5.6 12.4,12.4v0c0,6.8 -5.6,12.4 -12.4,12.4"></path>
            <path d="M34.2,19c1.4,1.2 2.4,3 2.4,5v0c0,3.6 -2.9,6.5 -6.5,6.5h-12.2c-3.6,0 -6.5,-2.9 -6.5,-6.5v0c0,-3.6 2.9,-6.5 6.5,-6.5h12.1"></path>
            <path d="M18.9,23.1v1.7"></path>
            <path d="M28.9,23.1v1.7"></path>
        </g>
    </g>
</svg>
