<svg version="1.1" xmlns="http://www.w3.org/2000/svg" xmlns:xlink="http://www.w3.org/1999/xlink" width="48px"
     height="48px" viewBox="0,0,255.99609,255.99609">
    <g fill="none" fill-rule="nonzero" stroke="none" stroke-width="none" stroke-linecap="none" stroke-linejoin="none"
       stroke-miterlimit="10" stroke-dasharray="" stroke-dashoffset="0" font-family="none" font-weight="none"
       font-size="none" text-anchor="none" style="mix-blend-mode: normal">
        <g transform="scale(5.33333,5.33333)">
            <path d="M24,14.5c3,0 5.5,2.5 5.5,5.5c0,3 -2.5,5.5 -5.5,5.5c-3,0 -5.5,-2.5 -5.5,-5.5" fill="none"
                  stroke="#67758e" stroke-width="3" stroke-linecap="round" stroke-linejoin="round"></path>
            <path d="M30.9,40.5h1c1.4,0 2.6,-1.1 2.6,-2.5v-0.3v0c0,-1.5 -0.6,-2.9 -1.7,-3.9c-1.6,-1.5 -3.6,-3.3 -8.8,-3.3c-5.2,0 -7.2,1.8 -8.8,3.3c-1.1,1 -1.7,2.4 -1.7,3.9v0.3c0,1.4 1.1,2.5 2.6,2.5h9"
                  fill="none" stroke="#67758e" stroke-width="3" stroke-linecap="round" stroke-linejoin="round"></path>
            <path d="M38.5,6h-29c-2.5,0 -4.5,2 -4.5,4.5v19c0,2.5 2,4.5 4.5,4.5v0c0.8,0 1.5,-0.7 1.5,-1.5v0c0,-0.8 -0.7,-1.5 -1.5,-1.5v0c-0.8,0 -1.5,-0.7 -1.5,-1.5v-19c0,-0.8 0.7,-1.5 1.5,-1.5h29c0.8,0 1.5,0.7 1.5,1.5v19c0,0.8 -0.7,1.5 -1.5,1.5v0c-0.8,0 -1.5,0.7 -1.5,1.5v0c0,0.8 0.7,1.5 1.5,1.5v0c2.5,0 4.5,-2 4.5,-4.5v-19c0,-2.5 -2,-4.5 -4.5,-4.5z"
                  fill="#67758e" stroke="none" stroke-width="1" stroke-linecap="butt" stroke-linejoin="miter"></path>
        </g>
    </g>
</svg>
