<svg version="1.1" xmlns="http://www.w3.org/2000/svg" xmlns:xlink="http://www.w3.org/1999/xlink" width="48px"
     height="48px" viewBox="0,0,255.99609,255.99609">
    <g fill="none" fill-rule="nonzero" stroke="#67758e" stroke-width="3" stroke-linecap="none" stroke-linejoin="none"
       stroke-miterlimit="10" stroke-dasharray="" stroke-dashoffset="0" font-family="none" font-weight="none"
       font-size="none" text-anchor="none" style="mix-blend-mode: normal">
        <g transform="scale(5.33333,5.33333)">
            <path d="M36.1,38c-3.2,2.8 -7.5,4.5 -12.1,4.5c-10.2,0 -18.5,-8.3 -18.5,-18.5c0,-3.7 1.1,-7.1 2.9,-10"
                  stroke-linecap="round" stroke-linejoin="round"></path>
            <path d="M15,7.8c2.7,-1.5 5.7,-2.3 9,-2.3c10.2,0 18.5,8.3 18.5,18.5c0,2 -0.3,4 -0.9,5.8"
                  stroke-linecap="round" stroke-linejoin="round"></path>
            <path d="M19.5,34.5c-2.2,0 -4,-1.8 -4,-4c0,-2.2 1.8,-4 4,-4c2.2,0 4,1.8 4,4" stroke-linecap="round"
                  stroke-linejoin="round"></path>
            <path d="M32.5,18.5c1.7,0 3,1.3 3,3c0,1.7 -1.3,3 -3,3c-0.8,0 -1.6,-0.3 -2.1,-0.9" stroke-linecap="round"
                  stroke-linejoin="round"></path>
            <circle cx="21" cy="16" r="2.5" stroke-linecap="butt" stroke-linejoin="miter"></circle>
        </g>
    </g>
</svg>