<svg version="1.1" xmlns="http://www.w3.org/2000/svg" xmlns:xlink="http://www.w3.org/1999/xlink" width="48px"
     height="48px" viewBox="0,0,255.99609,255.99609">
    <g fill="#67758e" fill-rule="nonzero" stroke="none" stroke-width="1" stroke-linecap="butt" stroke-linejoin="miter"
       stroke-miterlimit="10" stroke-dasharray="" stroke-dashoffset="0" font-family="none" font-weight="none"
       font-size="none" text-anchor="none" style="mix-blend-mode: normal">
        <g transform="scale(5.33333,5.33333)">
            <path d="M24,2.68945c-0.90896,0 -1.81892,0.27196 -2.59961,0.81836c-0.00196,0.00195 -0.00391,0.0039 -0.00586,0.00586c-2.35701,1.66934 -6.97396,4.4882 -12.4043,5.1543c-0.00586,0.00062 -0.01172,0.00127 -0.01758,0.00195c-2.21747,0.29634 -3.95898,2.18432 -3.95898,4.45117v9.40625c0,1.45559 0.13867,3.11449 0.52148,4.89063c0.10042,0.53649 0.48431,0.9761 1.00238,1.14789c0.51807,0.17179 1.08856,0.04865 1.48964,-0.32155c0.40108,-0.37019 0.56944,-0.92901 0.43963,-1.45916c-0.33318,-1.54586 -0.45312,-2.9934 -0.45312,-4.25781v-9.40625c0,-0.79914 0.50689,-1.36485 1.35742,-1.47852c6.2156,-0.76668 11.19944,-3.87004 13.75,-5.67578c0.48463,-0.33919 1.27123,-0.33919 1.75586,0l-0.00586,-0.00586c0.68603,0.48542 1.54999,1.06443 2.56445,1.66602c0.46136,0.27556 1.03486,0.28336 1.50354,0.02044c0.46868,-0.26292 0.76097,-0.75641 0.76628,-1.29378c0.00532,-0.53736 -0.27714,-1.03654 -0.74053,-1.30869c-0.93154,-0.55241 -1.72736,-1.08462 -2.36133,-1.5332c-0.00195,-0.00131 -0.0039,-0.00261 -0.00586,-0.00391c-0.78064,-0.5464 -1.68869,-0.81836 -2.59766,-0.81836zM35.88477,8.11328c-0.74751,0.03067 -1.35816,0.60742 -1.43143,1.35196c-0.07327,0.74454 0.41323,1.42926 1.14042,1.60507c0.97216,0.24594 1.98616,0.44484 3.03516,0.57422c0.84989,0.11302 1.35547,0.67594 1.35547,1.47656v9.4082c0,5.59794 -2.15236,14.66018 -15.30664,20.68164c-0.46445,0.16671 -1.0214,0.14714 -1.30664,0.02734c-6.03219,-2.75089 -9.71392,-6.15415 -11.97461,-9.55078c-0.29686,-0.44636 -0.80932,-0.7004 -1.34429,-0.66642c-0.53498,0.03398 -1.01118,0.35083 -1.24917,0.83115c-0.238,0.48033 -0.20162,1.05114 0.09542,1.49738c2.58812,3.88858 6.77126,7.67978 13.25391,10.63086c0.00972,0.00466 0.01948,0.00922 0.0293,0.01367c1.14372,0.49039 2.40787,0.4624 3.57227,0.02539c0.03168,-0.01196 0.06295,-0.02499 0.09375,-0.03906c14.17804,-6.45472 17.13672,-16.9945 17.13672,-23.45117v-9.4082c0,-2.26738 -1.74282,-4.15619 -3.96094,-4.45117c-0.00521,-0.00068 -0.01041,-0.00133 -0.01563,-0.00195c-0.918,-0.11266 -1.81224,-0.2869 -2.67773,-0.50586c-0.14516,-0.03847 -0.29527,-0.05493 -0.44531,-0.04883zM24,15.5c-3.8484,0 -7,3.1516 -7,7c0,2.08543 1.04308,3.84765 2.5,5.13086v1.86914c0,2.4675 2.0325,4.5 4.5,4.5c2.4675,0 4.5,-2.0325 4.5,-4.5v-2.39453c0.00765,-0.54095 -0.27656,-1.04412 -0.74381,-1.31683c-0.46725,-0.27271 -1.04514,-0.27271 -1.51238,0c-0.46725,0.27271 -0.75146,0.77588 -0.74381,1.31683v2.39453c0,0.8465 -0.6535,1.5 -1.5,1.5c-0.8465,0 -1.5,-0.6535 -1.5,-1.5v-2.39453c-0.00001,-0.50652 -0.25564,-0.97883 -0.67969,-1.25586c-1.0956,-0.71462 -1.82031,-1.93567 -1.82031,-3.34961c0,-2.2276 1.7724,-4 4,-4c2.2276,0 4,1.7724 4,4c0,0.032 0.00011,0.04713 0,0.05078c-0.0296,0.54365 0.23769,1.06066 0.69836,1.35085c0.46068,0.29019 1.04242,0.308 1.51998,0.04654c0.47757,-0.26146 0.77598,-0.76115 0.7797,-1.3056c0.00189,-0.06235 0.00195,-0.11058 0.00195,-0.14258c0,-3.8484 -3.1516,-7 -7,-7z"></path>
        </g>
    </g>
</svg>