<svg version="1.1" xmlns="http://www.w3.org/2000/svg" xmlns:xlink="http://www.w3.org/1999/xlink" width="48px"
     height="48px" viewBox="0,0,255.99609,255.99609">
    <g fill="#67758e" fill-rule="nonzero" stroke="none" stroke-width="1" stroke-linecap="butt" stroke-linejoin="miter"
       stroke-miterlimit="10" stroke-dasharray="" stroke-dashoffset="0" font-family="none" font-weight="none"
       font-size="none" text-anchor="none" style="mix-blend-mode: normal">
        <g transform="scale(5.33333,5.33333)">
            <path d="M24,2.68945c-0.90896,0 -1.81892,0.27391 -2.59961,0.82031c-0.00196,0.0013 -0.00391,0.0026 -0.00586,0.00391c-1.14491,0.81066 -2.81985,1.89701 -4.86523,2.87305c-0.49919,0.22113 -0.83883,0.696 -0.88677,1.23987c-0.04795,0.54386 0.20337,1.07084 0.65618,1.37589c0.4528,0.30505 1.03559,0.34001 1.52161,0.09128c2.24804,-1.07274 4.06179,-2.24992 5.30078,-3.12695c0.48463,-0.33919 1.27123,-0.33919 1.75586,0c2.55099,1.80549 7.53633,4.90991 13.75195,5.67773c0.84989,0.11302 1.35742,0.67594 1.35742,1.47656v9.4082c0,3.87886 -1.10115,9.41418 -6.07617,14.45508c-0.38875,0.37889 -0.54247,0.93824 -0.40196,1.46259c0.14051,0.52435 0.55333,0.93188 1.07944,1.06562c0.52612,0.13374 1.08344,-0.02719 1.45729,-0.42079c5.59698,-5.6711 6.94141,-12.09735 6.94141,-16.5625v-9.4082c0,-2.26738 -1.74282,-4.15619 -3.96094,-4.45117c-0.0052,-0.00068 -0.01041,-0.00133 -0.01562,-0.00195c-5.4296,-0.66701 -10.04616,-3.48487 -12.4043,-5.1543c-0.0026,-0.00131 -0.0052,-0.00261 -0.00781,-0.00391c-0.7807,-0.5464 -1.68869,-0.82031 -2.59766,-0.82031zM12.33203,8.03906c-0.13532,0.00009 -0.27,0.01848 -0.40039,0.05469c-0.94745,0.25121 -1.92956,0.45041 -2.94141,0.57422c-0.00521,0.00062 -0.01042,0.00127 -0.01562,0.00195c-2.21747,0.29634 -3.96094,2.18432 -3.96094,4.45117v9.40625c0,6.45667 2.95867,16.9984 17.13672,23.45313c0.01036,0.00468 0.02078,0.00923 0.03125,0.01367c1.14372,0.49039 2.40787,0.4624 3.57227,0.02539c0.03168,-0.01196 0.06295,-0.02499 0.09375,-0.03906c1.68257,-0.76575 3.21084,-1.58733 4.5957,-2.45312c0.45475,-0.28393 0.72345,-0.78894 0.70484,-1.32473c-0.01861,-0.53579 -0.32168,-1.02094 -0.79503,-1.27264c-0.47335,-0.2517 -1.04504,-0.23171 -1.49965,0.05245c-1.24552,0.77869 -2.63842,1.52491 -4.17578,2.22852c-0.46583,0.16721 -1.0261,0.1461 -1.31055,0.02539c-13.20076,-6.02135 -15.35352,-15.10365 -15.35352,-20.70898v-9.40625c0,-0.79914 0.50689,-1.36485 1.35742,-1.47852c1.15638,-0.14231 2.26844,-0.36695 3.33008,-0.64844c0.73513,-0.1847 1.21699,-0.88875 1.12304,-1.64088c-0.09395,-0.75213 -0.7342,-1.31601 -1.49218,-1.3142zM31.4707,17.98633c-0.38956,0.01135 -0.75941,0.17386 -1.03125,0.45313l-8.93945,8.93945l-3.93945,-3.93945c-0.37623,-0.39185 -0.9349,-0.54969 -1.46055,-0.41265c-0.52565,0.13704 -0.93616,0.54754 -1.07319,1.07319c-0.13704,0.52565 0.0208,1.08432 0.41265,1.46055l5,5c0.58579,0.58555 1.5353,0.58555 2.12109,0l10,-10c0.4429,-0.43135 0.57582,-1.09023 0.33479,-1.65955c-0.24103,-0.56932 -0.80665,-0.93247 -1.42463,-0.91467z"></path>
        </g>
    </g>
</svg>